<svg width="79" height="79" viewBox="0 0 79 79" fill="none" xmlns="http://www.w3.org/2000/svg">
<path d="M52.9878 1.58643H26.0122C12.1782 1.58643 0.96344 12.666 0.96344 26.3334V52.984C0.96344 66.6514 12.1782 77.731 26.0122 77.731H52.9878C66.8219 77.731 78.0366 66.6514 78.0366 52.984V26.3334C78.0366 12.666 66.8219 1.58643 52.9878 1.58643Z" stroke="white"/>
<path d="M31.0923 52.4775H47.1206" stroke="white" stroke-width="1.575" stroke-linecap="round" stroke-linejoin="round"/>
<path d="M33.3813 56.4761H44.8306" stroke="white" stroke-width="1.575" stroke-linecap="round" stroke-linejoin="round"/>
<path d="M42.5405 60.4727H35.6714" stroke="white" stroke-width="1.575" stroke-linecap="round" stroke-linejoin="round"/>
<path d="M47.0532 48.4799C47.0532 46.3288 47.5908 44.211 48.6217 42.3121L52.0109 36.0493C52.0302 36.0121 52.0524 35.9779 52.0707 35.9408L52.0919 35.8998H52.0842C52.7932 34.4096 53.1619 32.7836 53.1642 31.137C53.1642 24.2792 46.8702 18.7188 39.106 18.7188C31.3428 18.7188 25.0488 24.2792 25.0488 31.137C25.0488 32.8264 25.4371 34.4321 26.1279 35.8998H26.1221L26.1433 35.9408C26.1606 35.9779 26.1837 36.014 26.204 36.0512L29.5923 42.3112C30.6208 44.2086 31.1592 46.3275 31.1598 48.4799" stroke="white" stroke-width="1.575" stroke-linecap="round" stroke-linejoin="round"/>
</svg>
