<svg width="30" height="30" viewBox="0 0 30 30" fill="none" xmlns="http://www.w3.org/2000/svg">
<g clip-path="url(#clip0_1_480)">
<path fill-rule="evenodd" clip-rule="evenodd" d="M3.53128 7.79159H3.48895C1.3723 7.79159 0 6.3753 0 4.58005C0 2.74988 1.41286 1.36328 3.57185 1.36328C5.72907 1.36328 7.0555 2.74639 7.09784 4.57482C7.09784 6.37006 5.72907 7.79159 3.53128 7.79159ZM30 28.636H23.3696V19.0486C23.3696 16.539 22.3325 14.8259 20.0517 14.8259C18.3073 14.8259 17.3372 15.982 16.8855 17.0961C16.7365 17.4483 16.7392 17.9222 16.742 18.4107V18.4108C16.7424 18.4771 16.7427 18.5436 16.7427 18.6102V28.636H10.174C10.174 28.636 10.2587 11.6527 10.174 10.109H16.7427V13.0166C17.1307 11.7453 19.2298 9.93087 22.5794 9.93087C26.7351 9.93087 30 12.5958 30 18.3343V28.636ZM6.60395 10.109H0.756703V28.636H6.60395V10.109Z" fill="white"/>
</g>
<defs>
<clipPath id="clip0_1_480">
<rect width="30" height="30" fill="white"/>
</clipPath>
</defs>
</svg>
