<svg width="30" height="30" viewBox="0 0 30 30" fill="none" xmlns="http://www.w3.org/2000/svg">
<g clip-path="url(#clip0_1_484)">
<path d="M30 5.45955C28.8977 5.96154 27.7108 6.30101 26.4659 6.45269C27.7372 5.67262 28.7128 4.43572 29.1724 2.96226C27.982 3.68454 26.6667 4.21 25.2615 4.49169C24.1416 3.26562 22.5409 2.5 20.7695 2.5C17.3728 2.5 14.617 5.32593 14.617 8.81094C14.617 9.30571 14.6698 9.78603 14.7755 10.2483C9.66017 9.98465 5.1259 7.47472 2.08839 3.65204C1.55837 4.5874 1.2555 5.67263 1.2555 6.82828C1.2555 9.01679 2.34196 10.9489 3.99366 12.0811C2.98644 12.0504 2.03557 11.7632 1.20444 11.2937V11.3714C1.20444 14.4303 3.32629 16.9818 6.14369 17.5596C5.62775 17.7077 5.08364 17.7817 4.52192 17.7817C4.12572 17.7817 3.73833 17.7437 3.36327 17.6697C4.14686 20.1761 6.41838 22.0016 9.1125 22.0504C7.00652 23.7442 4.35112 24.7535 1.46857 24.7535C0.972 24.7535 0.480718 24.7247 0 24.6668C2.72407 26.4545 5.96056 27.5 9.43475 27.5C20.7572 27.5 26.9467 17.8846 26.9467 9.54406C26.9467 9.26959 26.9413 8.99512 26.9308 8.72608C28.1335 7.83586 29.1777 6.72535 30 5.45955Z" fill="white"/>
</g>
<defs>
<clipPath id="clip0_1_484">
<rect width="30" height="30" fill="white"/>
</clipPath>
</defs>
</svg>
